<svg xmlns="http://www.w3.org/2000/svg" viewBox="0 0 512 512">
  <defs>
    <linearGradient id="bg" x1="0" y1="0" x2="0" y2="1">
      <stop offset="0%" stop-color="#0f172a"/>
      <stop offset="100%" stop-color="#1e293b"/>
    </linearGradient>
  </defs>
  <rect width="512" height="512" rx="96" fill="url(#bg)"/>
  <!-- Silueta de cabeza de perfil -->
  <path
    d="M180 120
       C 250 100, 340 110, 380 170
       C 410 215, 405 270, 380 305
       C 365 326, 355 340, 360 365
       L 360 395
       C 360 410, 348 420, 332 420
       L 240 420
       C 224 420, 212 410, 212 395
       L 212 380
       C 212 368, 205 360, 195 354
       C 165 336, 142 305, 138 268
       C 134 230, 142 180, 180 120 Z"
    fill="#f8fafc"
    opacity="0.96"/>
  <!-- Punto de dolor pulsante -->
  <circle cx="300" cy="200" r="36" fill="#ef4444"/>
  <circle cx="300" cy="200" r="56" fill="none" stroke="#ef4444" stroke-width="6" opacity="0.45"/>
  <circle cx="300" cy="200" r="78" fill="none" stroke="#ef4444" stroke-width="4" opacity="0.22"/>
</svg>
